HIERARCHY
ROOT Hips
{
	OFFSET 50.509499 -14.927916 94.355598
	CHANNELS 6 Xposition Yposition Zposition Xrotation Yrotation Zrotation
	JOINT spine
	{
		OFFSET 0.000000 -0.448574 7.800591
		CHANNELS 3 Xrotation Yrotation Zrotation
		JOINT spine1
		{
			OFFSET 0.000000 -0.000002 10.136398
			CHANNELS 3 Xrotation Yrotation Zrotation
			JOINT spine2
			{
				OFFSET 0.000000 -0.000002 9.712509
				CHANNELS 3 Xrotation Yrotation Zrotation
				JOINT Neck
				{
					OFFSET 0.000000 -1.188875 24.936096
					CHANNELS 3 Xrotation Yrotation Zrotation
					JOINT Head
					{
						OFFSET 0.000000 0.000000 7.533844
						CHANNELS 3 Xrotation Yrotation Zrotation
						End Site
						{
							OFFSET 0.000000 6.014016 18.236099
						}
					}
				}
				JOINT RightShoulder
				{
					OFFSET -4.089649 0.569455 10.488800
					CHANNELS 3 Xrotation Yrotation Zrotation
					JOINT RightArm
					{
						OFFSET 0.000000 -0.000002 13.757004
						CHANNELS 3 Xrotation Yrotation Zrotation
						JOINT RightArmRoll
						{
							OFFSET 0.000000 -0.000001 6.944778
							CHANNELS 3 Xrotation Yrotation Zrotation
							JOINT RightForeArm
							{
								OFFSET 0.000000 -0.000004 20.227692
								CHANNELS 3 Xrotation Yrotation Zrotation
								JOINT RightForeArmRoll
								{
									OFFSET 0.000000 -0.000001 7.793121
									CHANNELS 3 Xrotation Yrotation Zrotation
									JOINT RightHand
									{
										OFFSET 0.000000 -0.000003 15.639099
										CHANNELS 3 Xrotation Yrotation Zrotation
										End Site
										{
											OFFSET 0.000000 0.000000 0.100006
										}
									}
								}
							}
						}
					}
				}
				JOINT LeftShoulder
				{
					OFFSET 4.089649 0.569455 10.488800
					CHANNELS 3 Xrotation Yrotation Zrotation
					JOINT LeftArm
					{
						OFFSET 0.000000 -0.000002 13.757004
						CHANNELS 3 Xrotation Yrotation Zrotation
						JOINT LeftArmRoll
						{
							OFFSET 0.000000 -0.000001 6.944778
							CHANNELS 3 Xrotation Yrotation Zrotation
							JOINT LeftForeArm
							{
								OFFSET 0.000000 -0.000004 20.227692
								CHANNELS 3 Xrotation Yrotation Zrotation
								JOINT LeftForeArmRoll
								{
									OFFSET 0.000000 -0.000001 7.793121
									CHANNELS 3 Xrotation Yrotation Zrotation
									JOINT LeftHand
									{
										OFFSET 0.000000 -0.000003 15.639099
										CHANNELS 3 Xrotation Yrotation Zrotation
										End Site
										{
											OFFSET 0.000000 0.000000 0.100006
										}
									}
								}
							}
						}
					}
				}
			}
		}
	}
	JOINT RightUpLeg
	{
		OFFSET -6.914162 1.063580 -1.267883
		CHANNELS 3 Xrotation Yrotation Zrotation
		JOINT RightUpLegRoll
		{
			OFFSET 0.000000 -0.000003 18.337799
			CHANNELS 3 Xrotation Yrotation Zrotation
			JOINT RightLeg
			{
				OFFSET 0.000000 0.000004 -22.708504
				CHANNELS 3 Xrotation Yrotation Zrotation
				JOINT RightLegRoll
				{
					OFFSET 0.000000 -0.000004 22.782799
					CHANNELS 3 Xrotation Yrotation Zrotation
					JOINT RightFoot
					{
						OFFSET 0.000000 -0.000003 18.962898
						CHANNELS 3 Xrotation Yrotation Zrotation
						JOINT RightToeBase
						{
							OFFSET 0.000000 -0.000003 15.852005
							CHANNELS 3 Xrotation Yrotation Zrotation
							End Site
							{
								OFFSET 0.006718 0.884892 7.677017
							}
						}
					}
				}
			}
		}
	}
	JOINT LeftUpLeg
	{
		OFFSET 6.914162 1.063580 -1.267883
		CHANNELS 3 Xrotation Yrotation Zrotation
		JOINT LeftUpLegRoll
		{
			OFFSET 0.000000 -0.000003 18.337898
			CHANNELS 3 Xrotation Yrotation Zrotation
			JOINT LeftLeg
			{
				OFFSET 0.000000 -0.000004 22.708405
				CHANNELS 3 Xrotation Yrotation Zrotation
				JOINT LeftLegRoll
				{
					OFFSET 0.000000 -0.000004 22.993393
					CHANNELS 3 Xrotation Yrotation Zrotation
					JOINT LeftFoot
					{
						OFFSET 0.000000 -0.000003 18.752197
						CHANNELS 3 Xrotation Yrotation Zrotation
						JOINT LeftToeBase
						{
							OFFSET 0.000000 -0.000003 15.852005
							CHANNELS 3 Xrotation Yrotation Zrotation
							End Site
							{
								OFFSET -0.030113 0.884892 7.677002
							}
						}
					}
				}
			}
		}
	}
}
MOTION
Frames: 13
Frame Time: 0.041667
51.494904 -12.424118 94.294884 -5.459302 0.582735 3.366482 -0.328131 0.159044 0.315571 3.373832 0.316292 0.634677 5.018870 0.323855 0.630917 11.965552 0.789877 -3.467732 -14.547888 -4.942805 -3.621842 -25.865810 -79.888543 -29.673538 -53.707635 -96.647682 -42.483230 -0.000001 -0.000002 0.000001 35.075887 -10.258880 1.627459 0.000009 0.000005 -3.000000 -5.000025 -7.998772 0.000106 10.538953 66.723428 -10.837313 -24.425846 104.829033 18.980510 0.000000 0.000000 0.000000 26.635848 8.712916 -0.411254 0.000000 -0.000013 3.000001 -5.000412 7.998918 -0.000188 1.016810 -178.375253 -0.147106 -179.999991 0.000005 -1.015002 171.810813 -1.400582 -0.620536 -0.000004 -0.000001 0.044190 68.885224 6.142345 4.073241 25.456960 -7.355615 0.000000 0.174916 179.809006 6.568885 -0.000005 -0.000004 -1.401270 -12.654738 4.538632 0.732369 -0.000004 0.000001 -0.299892 73.606422 -7.717479 0.633384 25.456962 7.355614 -0.000010 
51.485703 -12.417919 94.293091 -5.450823 0.594496 3.375457 -0.329731 0.159591 0.313245 3.368601 0.317557 0.629647 5.013651 0.325063 0.625867 11.974820 0.778934 -3.466254 -14.542745 -4.923919 -3.618190 -25.906633 -79.906342 -29.715868 -54.248071 -96.694674 -42.906466 -0.000001 -0.000002 0.000000 34.881575 -10.239085 1.604185 0.000006 0.000006 -3.000000 -5.000023 -7.998773 0.000107 10.587545 66.728728 -10.890487 -24.506210 104.854380 19.093630 -0.000000 0.000000 0.000000 26.651007 8.716040 -0.413441 -0.000003 -0.000013 3.000001 -5.000414 7.998919 -0.000188 1.021150 -178.394255 -0.160538 -179.999991 0.000005 -1.015002 171.831454 -1.396693 -0.619463 -0.000005 -0.000001 0.044191 68.879692 6.143094 4.071390 25.456957 -7.355615 0.000001 0.165778 179.794007 6.560743 -0.000005 -0.000004 -1.401210 -12.660231 4.537178 0.732712 -0.000005 0.000001 -0.300456 73.615219 -7.718512 0.638643 25.456967 7.355615 -0.000011 
51.486004 -12.426615 94.299103 -5.441962 0.606449 3.384823 -0.331343 0.160133 0.310806 3.363282 0.318817 0.624344 5.008331 0.326259 0.620544 11.983888 0.766735 -3.464314 -14.536859 -4.903199 -3.613912 -25.949113 -79.924777 -29.759909 -54.782577 -96.742868 -43.325287 -0.000001 -0.000002 0.000001 34.688410 -10.219763 1.581379 0.000006 0.000006 -3.000001 -5.000023 -7.998773 0.000107 10.637359 66.734042 -10.945025 -24.586349 104.879761 19.206412 0.000000 0.000000 -0.000000 26.667046 8.718842 -0.415630 -0.000005 -0.000013 3.000001 -5.000416 7.998918 -0.000188 1.025112 -178.414254 -0.174452 -179.999991 0.000005 -1.015002 171.852300 -1.392804 -0.618388 -0.000004 -0.000001 0.044192 68.874043 6.143795 4.069633 25.456960 -7.355614 0.000001 0.156203 179.778994 6.552347 -0.000005 -0.000004 -1.401120 -12.665826 4.535781 0.733084 -0.000005 0.000001 -0.301021 73.624016 -7.719540 0.643797 25.456964 7.355615 -0.000011 
51.480209 -12.433020 94.300697 -5.432826 0.618537 3.394465 -0.332961 0.160672 0.308287 3.357902 0.320073 0.618851 5.002951 0.327451 0.615031 11.992651 0.753659 -3.462049 -14.530550 -4.881189 -3.609204 -25.992550 -79.943587 -29.804927 -55.312071 -96.791929 -43.740006 -0.000001 -0.000002 0.000002 34.495983 -10.200969 1.559061 0.000006 0.000006 -3.000001 -5.000025 -7.998772 0.000107 10.688032 66.739390 -11.000526 -24.666298 104.905176 19.318905 -0.000001 -0.000000 0.000000 26.683681 8.721428 -0.417817 -0.000003 -0.000013 3.000001 -5.000414 7.998918 -0.000188 1.028804 -178.434252 -0.188695 -179.999991 0.000005 -1.015002 171.873296 -1.387927 -0.618169 -0.000004 -0.000001 0.044193 68.868183 6.144515 4.067894 25.456955 -7.355614 0.000001 0.146319 179.762997 6.543775 -0.000004 -0.000004 -1.401010 -12.671420 4.534414 0.733468 -0.000004 0.000001 -0.301588 73.632718 -7.720635 0.649141 25.456964 7.355615 -0.000011 
51.479904 -12.439221 94.294884 -5.423539 0.630706 3.404269 -0.334583 0.161211 0.305723 3.352472 0.321326 0.613251 4.997522 0.328638 0.609409 12.001416 0.740080 -3.459584 -14.523825 -4.858439 -3.604236 -26.036515 -79.962568 -29.850488 -55.835591 -96.841646 -44.149277 -0.000001 -0.000002 0.000001 34.304041 -10.182331 1.537008 0.000005 0.000006 -3.000001 -5.000032 -7.998772 0.000106 10.739183 66.744588 -11.056560 -24.746025 104.930618 19.431103 -0.000000 -0.000000 0.000000 26.700710 8.723874 -0.420013 -0.000004 -0.000013 3.000000 -5.000416 7.998917 -0.000188 1.032355 -178.454251 -0.203126 -179.999991 0.000005 -1.015002 171.894346 -1.384037 -0.617094 -0.000004 -0.000001 0.044194 68.862322 6.145198 4.066247 25.456957 -7.355615 0.000000 0.136255 179.747001 6.535097 -0.000005 -0.000004 -1.400890 -12.676912 4.533057 0.733849 -0.000004 0.000001 -0.302156 73.641460 -7.721753 0.654580 25.456960 7.355614 -0.000010 
51.477802 -12.447121 94.294693 -5.414211 0.642896 3.414101 -0.336206 0.161749 0.303147 3.347043 0.322580 0.607622 4.992092 0.329825 0.603761 12.010079 0.726376 -3.457086 -14.517195 -4.835514 -3.599224 -26.080872 -79.981652 -29.896455 -56.352855 -96.891814 -44.552327 -0.000001 -0.000002 0.000000 34.112256 -10.163637 1.515074 0.000006 0.000006 -3.000000 -5.000026 -7.998773 0.000106 10.790498 66.749854 -11.112778 -24.825477 104.956095 19.543034 -0.000000 0.000001 -0.000001 26.717747 8.726299 -0.422202 -0.000005 -0.000013 3.000001 -5.000413 7.998918 -0.000188 1.035867 -178.474250 -0.217605 -179.999991 0.000005 -1.015002 171.915452 -1.380147 -0.617019 -0.000004 -0.000001 0.044195 68.856462 6.145878 4.064599 25.456960 -7.355614 0.000001 0.126149 179.731005 6.526406 -0.000004 -0.000004 -1.400770 -12.682509 4.531718 0.734243 -0.000004 0.000001 -0.302723 73.650176 -7.722841 0.659822 25.456964 7.355615 -0.000011 
51.472908 -12.438322 94.292793 -5.404963 0.655052 3.423846 -0.337827 0.162287 0.300594 3.341623 0.323835 0.602047 4.986683 0.331016 0.598167 12.018743 0.712925 -3.454656 -14.510578 -4.812946 -3.594332 -26.124995 -80.000537 -29.942159 -56.864238 -96.942125 -44.949366 -0.000001 -0.000002 0.000002 33.920311 -10.144929 1.493320 0.000006 0.000006 -3.000000 -5.000028 -7.998772 0.000107 10.841570 66.755031 -11.168719 -24.904688 104.981585 19.654723 0.000000 0.000000 -0.000000 26.734680 8.728786 -0.424403 0.000001 -0.000013 3.000000 -5.000416 7.998918 -0.000188 1.039449 -178.494249 -0.231994 -179.999991 0.000005 -1.015002 171.936502 -1.375269 -0.615811 -0.000004 -0.000001 0.044196 68.850602 6.146560 4.062954 25.456957 -7.355614 0.000000 0.116131 179.714995 6.517772 -0.000004 -0.000004 -1.400659 -12.688102 4.530360 0.734632 -0.000005 0.000001 -0.303291 73.658993 -7.723910 0.665176 25.456965 7.355616 -0.000011 
51.466404 -12.447120 94.293983 -5.395905 0.667115 3.433401 -0.339444 0.162828 0.298099 3.336263 0.325096 0.596611 4.981313 0.332213 0.592710 12.027609 0.700101 -3.452470 -14.504390 -4.791297 -3.589769 -26.168874 -80.019225 -29.987628 -57.370433 -96.992293 -45.340490 -0.000001 -0.000001 0.000002 33.727754 -10.125755 1.471422 0.000006 0.000006 -3.000001 -5.000031 -7.998772 0.000107 10.892060 66.760216 -11.224022 -24.983558 105.007096 19.766141 0.000000 0.000001 0.000001 26.751119 8.731423 -0.426590 -0.000005 -0.000013 3.000001 -5.000416 7.998918 -0.000188 1.043220 -178.514248 -0.246154 -179.999991 0.000005 -1.015002 171.957444 -1.371377 -0.615759 -0.000005 -0.000001 0.044197 68.844844 6.147251 4.061303 25.456959 -7.355613 0.000000 0.106331 179.699996 6.509271 -0.000004 -0.000004 -1.400559 -12.693596 4.528985 0.735003 -0.000005 0.000001 -0.303857 73.667709 -7.724985 0.670522 25.456964 7.355615 -0.000011 
51.466602 -12.458819 94.294090 -5.387160 0.679029 3.442632 -0.341048 0.163373 0.295694 3.330964 0.326365 0.591391 4.976025 0.333420 0.587470 12.036780 0.688284 -3.450638 -14.498729 -4.771126 -3.585711 -26.211853 -80.037454 -30.032140 -57.870724 -97.042139 -45.724589 -0.000000 -0.000001 0.000001 33.534385 -10.106133 1.449455 0.000010 0.000006 -3.000001 -5.000027 -7.998773 0.000106 10.941602 66.765359 -11.278261 -25.060558 105.033543 19.875731 -0.000000 0.000000 -0.000000 26.766965 8.734318 -0.428796 -0.000001 -0.000013 3.000001 -5.000411 7.998919 -0.000188 1.047296 -178.533249 -0.259929 -179.999991 0.000005 -1.015003 171.978235 -1.367497 -0.614705 -0.000004 -0.000001 0.044198 68.839202 6.147988 4.059452 25.456959 -7.355616 0.000001 0.096890 179.683999 6.500975 -0.000004 -0.000004 -1.400480 -12.699187 4.527568 0.735366 -0.000003 0.000001 -0.304422 73.676417 -7.726062 0.675767 25.456965 7.355615 -0.000011 
51.463505 -12.462420 94.292297 -5.378828 0.690735 3.451415 -0.342646 0.163921 0.293414 3.325784 0.327641 0.586472 4.970844 0.334639 0.582530 12.046254 0.677848 -3.449320 -14.493825 -4.752973 -3.582331 -26.253548 -80.055001 -30.075324 -58.365708 -97.091358 -46.101885 -0.000001 -0.000002 0.000001 33.339857 -10.085679 1.427163 0.000003 0.000005 -3.000001 -5.000028 -7.998773 0.000107 10.989832 66.770488 -11.331041 -25.138815 105.059094 19.986742 0.000000 0.000000 -0.000000 26.781728 8.737566 -0.430991 -0.000004 -0.000013 3.000001 -5.000415 7.998917 -0.000188 1.051784 -178.552251 -0.273196 -179.999991 0.000005 -1.015002 171.998766 -1.363603 -0.614655 -0.000004 -0.000001 0.044198 68.833670 6.148731 4.057702 25.456959 -7.355614 0.000000 0.087926 179.669000 6.492981 -0.000005 -0.000004 -1.400429 -12.704780 4.526094 0.735707 -0.000004 0.000001 -0.304985 73.685221 -7.727090 0.681025 25.456965 7.355615 -0.000011 
51.458305 -12.471523 94.293694 -5.371050 0.702178 3.459655 -0.344223 0.164476 0.291292 3.320724 0.328930 0.581934 4.965784 0.335873 0.577974 12.056035 0.669171 -3.448638 -14.489978 -4.737392 -3.579840 -26.293687 -80.071810 -30.116886 -58.855474 -97.139715 -46.472078 -0.000000 -0.000001 0.000002 33.143752 -10.064432 1.404594 0.000008 0.000006 -3.000001 -5.000027 -7.998772 0.000107 11.036452 66.775706 -11.382033 -25.215115 105.085568 20.095935 -0.000000 0.000001 0.000000 26.795409 8.741251 -0.433203 -0.000003 -0.000013 3.000000 -5.000412 7.998919 -0.000188 1.056799 -178.570242 -0.285802 -179.999991 0.000005 -1.015002 172.019025 -1.360694 -0.613756 -0.000004 -0.000001 0.044198 68.828370 6.149566 4.055653 25.456957 -7.355613 0.000000 0.079590 179.654001 6.485339 -0.000005 -0.000004 -1.400419 -12.710370 4.524550 0.736020 -0.000005 0.000002 -0.305545 73.694005 -7.728063 0.686091 25.456960 7.355615 -0.000011 
51.458202 -12.476316 94.295593 -5.363918 0.713297 3.467221 -0.345786 0.165037 0.289365 3.315834 0.330230 0.577859 4.960895 0.337127 0.573879 12.066419 0.662627 -3.448736 -14.487198 -4.724936 -3.578399 -26.331621 -80.087602 -30.156183 -59.340868 -97.186926 -46.835550 -0.000001 -0.000001 0.000001 32.945834 -10.041985 1.381526 0.000004 0.000006 -3.000000 -5.000026 -7.998773 0.000106 11.080979 66.780754 -11.430690 -25.289479 105.112957 20.203329 0.000000 -0.000000 0.000000 26.807509 8.745476 -0.435406 -0.000003 -0.000013 3.000001 -5.000410 7.998918 -0.000188 1.062452 -178.588246 -0.297624 -179.999991 0.000005 -1.015002 172.038941 -1.357798 -0.612868 -0.000004 -0.000001 0.044198 68.823390 6.150429 4.053491 25.456960 -7.355615 0.000001 0.072001 179.639999 6.478147 -0.000004 -0.000004 -1.400459 -12.715861 4.522929 0.736294 -0.000004 0.000001 -0.306102 73.702782 -7.729025 0.691158 25.456960 7.355614 -0.000011 
51.446701 -12.426416 94.290695 -5.357559 0.724037 3.473989 -0.347325 0.165606 0.287665 3.311135 0.331546 0.574329 4.956196 0.338402 0.570329 12.077409 0.658594 -3.449766 -14.485909 -4.716159 -3.578207 -26.367378 -80.102355 -30.193210 -59.822710 -97.232695 -47.192813 -0.000001 -0.000001 0.000001 32.745785 -10.018195 1.357894 0.000007 0.000005 -3.000001 -5.000029 -7.998774 0.000106 11.123191 66.785959 -11.476755 -25.365046 105.139438 20.312228 0.000000 0.000000 0.000000 26.817934 8.750341 -0.437630 -0.000005 -0.000013 3.000001 -5.000411 7.998918 -0.000188 1.068856 -178.605226 -0.308506 -179.999991 0.000005 -1.015002 172.058435 -1.355873 -0.612130 -0.000004 -0.000001 0.044197 68.818636 6.151348 4.051228 25.456955 -7.355614 0.000000 0.065296 179.626995 6.471473 -0.000004 -0.000004 -1.400560 -12.721448 4.521212 0.736536 -0.000005 0.000001 -0.306655 73.711641 -7.729914 0.696040 25.456962 7.355616 -0.000011 
